<?xml version="1.0" standalone="no"?><svg xmlns="http://www.w3.org/2000/svg" viewBox="0 0 1440 320"><path fill="#42AEDB" fill-opacity="1" d="M0,224L30,234.7C60,245,120,267,180,256C240,245,300,203,360,181.3C420,160,480,160,540,176C600,192,660,224,720,245.3C780,267,840,277,900,256C960,235,1020,181,1080,176C1140,171,1200,213,1260,202.7C1320,192,1380,128,1410,96L1440,64L1440,320L1410,320C1380,320,1320,320,1260,320C1200,320,1140,320,1080,320C1020,320,960,320,900,320C840,320,780,320,720,320C660,320,600,320,540,320C480,320,420,320,360,320C300,320,240,320,180,320C120,320,60,320,30,320L0,320Z"></path></svg>